<svg xmlns="http://www.w3.org/2000/svg" width="820" height="906" viewBox="0 0 820 906" role="img" aria-labelledby="title desc"><title id="title">architecture</title><desc id="desc">Diagrama renderizado da fonte Mermaid editável.</desc><defs><marker id="arrow" markerWidth="10" markerHeight="10" refX="7" refY="3" orient="auto"><path d="M0,0 L0,6 L8,3 z" fill="#8b67aa"/></marker></defs><rect width="100%" height="100%" fill="#f8f4fa"/><text x="410" y="30" text-anchor="middle" font-family="Segoe UI,Arial,sans-serif" font-size="18" font-weight="700" fill="#4d2867">architecture</text><path d="M 410 140 V 167 H 410 V 186" fill="none" stroke="#8b67aa" stroke-width="2.5" marker-end="url(#arrow)"/>
<path d="M 410 266 V 293 H 410 V 312" fill="none" stroke="#8b67aa" stroke-width="2.5" marker-end="url(#arrow)"/>
<path d="M 410 392 V 419 H 410 V 438" fill="none" stroke="#8b67aa" stroke-width="2.5" marker-end="url(#arrow)"/>
<path d="M 410 518 V 545 H 410 V 564" fill="none" stroke="#8b67aa" stroke-width="2.5" marker-end="url(#arrow)"/>
<path d="M 410 644 V 671 H 260 V 690" fill="none" stroke="#8b67aa" stroke-width="2.5" marker-end="url(#arrow)"/>
<path d="M 410 644 V 671 H 560 V 690" fill="none" stroke="#8b67aa" stroke-width="2.5" marker-end="url(#arrow)"/>
<path d="M 560 770 V 797 H 410 V 816" fill="none" stroke="#8b67aa" stroke-width="2.5" marker-end="url(#arrow)"/><g><rect x="280" y="68" width="260" height="72" rx="16" fill="#fffaf3" stroke="#d8c8e5" stroke-width="2"/><text x="410" y="95" text-anchor="middle" font-family="Segoe UI,Arial,sans-serif" font-size="15" font-weight="600" fill="#33233c"><tspan x="410" dy="0">Pessoa visitante ou</tspan><tspan x="410" dy="19">autenticada</tspan></text></g>
<g><rect x="280" y="194" width="260" height="72" rx="16" fill="#fffaf3" stroke="#d8c8e5" stroke-width="2"/><text x="410" y="221" text-anchor="middle" font-family="Segoe UI,Arial,sans-serif" font-size="15" font-weight="600" fill="#33233c"><tspan x="410" dy="0">Firebase Auth e claim</tspan><tspan x="410" dy="19">confiável</tspan></text></g>
<g><rect x="280" y="320" width="260" height="72" rx="16" fill="#fffaf3" stroke="#d8c8e5" stroke-width="2"/><text x="410" y="347" text-anchor="middle" font-family="Segoe UI,Arial,sans-serif" font-size="15" font-weight="600" fill="#33233c"><tspan x="410" dy="0">Resolver slug e tenant</tspan><tspan x="410" dy="19">ativo</tspan></text></g>
<g><rect x="280" y="446" width="260" height="72" rx="16" fill="#fffaf3" stroke="#d8c8e5" stroke-width="2"/><text x="410" y="473" text-anchor="middle" font-family="Segoe UI,Arial,sans-serif" font-size="15" font-weight="600" fill="#33233c"><tspan x="410" dy="0">Membership e role do</tspan><tspan x="410" dy="19">tenant</tspan></text></g>
<g><rect x="280" y="572" width="260" height="72" rx="16" fill="#fffaf3" stroke="#d8c8e5" stroke-width="2"/><text x="410" y="599" text-anchor="middle" font-family="Segoe UI,Arial,sans-serif" font-size="15" font-weight="600" fill="#33233c"><tspan x="410" dy="0">Guards e interface</tspan><tspan x="410" dy="19">tenant-scoped</tspan></text></g>
<g><rect x="130" y="698" width="260" height="72" rx="16" fill="#fffaf3" stroke="#d8c8e5" stroke-width="2"/><text x="260" y="725" text-anchor="middle" font-family="Segoe UI,Arial,sans-serif" font-size="15" font-weight="600" fill="#33233c"><tspan x="260" dy="0">Firestore com Rules</tspan><tspan x="260" dy="19">deny-by-default</tspan></text></g>
<g><rect x="430" y="698" width="260" height="72" rx="16" fill="#fffaf3" stroke="#d8c8e5" stroke-width="2"/><text x="560" y="725" text-anchor="middle" font-family="Segoe UI,Arial,sans-serif" font-size="15" font-weight="600" fill="#33233c"><tspan x="560" dy="0">Callable Functions validam</tspan><tspan x="560" dy="19">e gravam</tspan></text></g>
<g><rect x="280" y="824" width="260" height="72" rx="16" fill="#fffaf3" stroke="#d8c8e5" stroke-width="2"/><text x="410" y="851" text-anchor="middle" font-family="Segoe UI,Arial,sans-serif" font-size="15" font-weight="600" fill="#33233c"><tspan x="410" dy="0">Audit e projeção pública</tspan><tspan x="410" dy="19">segura</tspan></text></g></svg>
